<mxfile host="app.diagrams.net" modified="2021-11-20T01:04:58.087Z" agent="5.0 (Windows NT 10.0; Win64; x64) AppleWebKit/537.36 (KHTML, like Gecko) Chrome/100.0.4715.3 Safari/537.36" etag="u8VhmSojFtPQcj9OdRTh" version="15.8.3" type="github">
  <diagram id="IR53FKZ4Cqs8PqMfu6VI" name="Page-1">
    <mxGraphModel dx="1038" dy="556" grid="1" gridSize="10" guides="1" tooltips="1" connect="1" arrows="1" fold="1" page="1" pageScale="1" pageWidth="827" pageHeight="1169" math="0" shadow="0">
      <root>
        <mxCell id="0" />
        <mxCell id="1" parent="0" />
        <mxCell id="7SBuzqeGvcBYbPDj4jfo-10" style="edgeStyle=orthogonalEdgeStyle;rounded=0;orthogonalLoop=1;jettySize=auto;html=1;entryX=0;entryY=0.5;entryDx=0;entryDy=0;" edge="1" parent="1" source="7SBuzqeGvcBYbPDj4jfo-1" target="7SBuzqeGvcBYbPDj4jfo-3">
          <mxGeometry relative="1" as="geometry" />
        </mxCell>
        <mxCell id="7SBuzqeGvcBYbPDj4jfo-1" value="" style="ellipse;whiteSpace=wrap;html=1;aspect=fixed;fillColor=#d5e8d4;strokeColor=#82b366;" vertex="1" parent="1">
          <mxGeometry x="160" y="90" width="30" height="30" as="geometry" />
        </mxCell>
        <mxCell id="7SBuzqeGvcBYbPDj4jfo-9" style="edgeStyle=orthogonalEdgeStyle;rounded=0;orthogonalLoop=1;jettySize=auto;html=1;entryX=0.5;entryY=0;entryDx=0;entryDy=0;" edge="1" parent="1" source="7SBuzqeGvcBYbPDj4jfo-3" target="7SBuzqeGvcBYbPDj4jfo-4">
          <mxGeometry relative="1" as="geometry" />
        </mxCell>
        <mxCell id="7SBuzqeGvcBYbPDj4jfo-3" value="Seleciona a visualização" style="rounded=1;whiteSpace=wrap;html=1;" vertex="1" parent="1">
          <mxGeometry x="354" y="70" width="120" height="70" as="geometry" />
        </mxCell>
        <mxCell id="7SBuzqeGvcBYbPDj4jfo-7" style="edgeStyle=orthogonalEdgeStyle;rounded=0;orthogonalLoop=1;jettySize=auto;html=1;exitX=1;exitY=0.5;exitDx=0;exitDy=0;" edge="1" parent="1" source="7SBuzqeGvcBYbPDj4jfo-4" target="7SBuzqeGvcBYbPDj4jfo-6">
          <mxGeometry relative="1" as="geometry" />
        </mxCell>
        <mxCell id="7SBuzqeGvcBYbPDj4jfo-8" style="edgeStyle=orthogonalEdgeStyle;rounded=0;orthogonalLoop=1;jettySize=auto;html=1;exitX=0;exitY=0.5;exitDx=0;exitDy=0;entryX=1;entryY=0.5;entryDx=0;entryDy=0;" edge="1" parent="1" source="7SBuzqeGvcBYbPDj4jfo-4" target="7SBuzqeGvcBYbPDj4jfo-5">
          <mxGeometry relative="1" as="geometry" />
        </mxCell>
        <mxCell id="7SBuzqeGvcBYbPDj4jfo-4" value="" style="rhombus;whiteSpace=wrap;html=1;" vertex="1" parent="1">
          <mxGeometry x="374" y="190" width="80" height="80" as="geometry" />
        </mxCell>
        <mxCell id="7SBuzqeGvcBYbPDj4jfo-12" style="edgeStyle=orthogonalEdgeStyle;rounded=0;orthogonalLoop=1;jettySize=auto;html=1;entryX=0.5;entryY=0;entryDx=0;entryDy=0;" edge="1" parent="1" source="7SBuzqeGvcBYbPDj4jfo-5" target="7SBuzqeGvcBYbPDj4jfo-11">
          <mxGeometry relative="1" as="geometry" />
        </mxCell>
        <mxCell id="7SBuzqeGvcBYbPDj4jfo-5" value="Volume" style="rounded=1;whiteSpace=wrap;html=1;" vertex="1" parent="1">
          <mxGeometry x="140" y="200" width="120" height="60" as="geometry" />
        </mxCell>
        <mxCell id="7SBuzqeGvcBYbPDj4jfo-16" style="edgeStyle=orthogonalEdgeStyle;rounded=0;orthogonalLoop=1;jettySize=auto;html=1;entryX=0.5;entryY=0;entryDx=0;entryDy=0;" edge="1" parent="1" source="7SBuzqeGvcBYbPDj4jfo-6" target="7SBuzqeGvcBYbPDj4jfo-14">
          <mxGeometry relative="1" as="geometry" />
        </mxCell>
        <mxCell id="7SBuzqeGvcBYbPDj4jfo-6" value="Dashaboard" style="rounded=1;whiteSpace=wrap;html=1;" vertex="1" parent="1">
          <mxGeometry x="560" y="200" width="120" height="60" as="geometry" />
        </mxCell>
        <mxCell id="7SBuzqeGvcBYbPDj4jfo-17" style="edgeStyle=orthogonalEdgeStyle;rounded=0;orthogonalLoop=1;jettySize=auto;html=1;exitX=0.5;exitY=1;exitDx=0;exitDy=0;" edge="1" parent="1" source="7SBuzqeGvcBYbPDj4jfo-11">
          <mxGeometry relative="1" as="geometry">
            <mxPoint x="200" y="440" as="targetPoint" />
          </mxGeometry>
        </mxCell>
        <mxCell id="7SBuzqeGvcBYbPDj4jfo-11" value="Processas volume das cisternas" style="shape=parallelogram;perimeter=parallelogramPerimeter;whiteSpace=wrap;html=1;fixedSize=1;" vertex="1" parent="1">
          <mxGeometry x="140" y="340" width="120" height="60" as="geometry" />
        </mxCell>
        <mxCell id="7SBuzqeGvcBYbPDj4jfo-20" style="edgeStyle=orthogonalEdgeStyle;rounded=0;orthogonalLoop=1;jettySize=auto;html=1;entryX=0.5;entryY=0;entryDx=0;entryDy=0;" edge="1" parent="1" source="7SBuzqeGvcBYbPDj4jfo-14" target="7SBuzqeGvcBYbPDj4jfo-19">
          <mxGeometry relative="1" as="geometry" />
        </mxCell>
        <mxCell id="7SBuzqeGvcBYbPDj4jfo-14" value="Processa Dados Mensal" style="shape=parallelogram;perimeter=parallelogramPerimeter;whiteSpace=wrap;html=1;fixedSize=1;" vertex="1" parent="1">
          <mxGeometry x="560" y="340" width="120" height="60" as="geometry" />
        </mxCell>
        <mxCell id="7SBuzqeGvcBYbPDj4jfo-18" value="" style="ellipse;whiteSpace=wrap;html=1;aspect=fixed;fillColor=#f8cecc;strokeColor=#b85450;" vertex="1" parent="1">
          <mxGeometry x="185" y="440" width="30" height="30" as="geometry" />
        </mxCell>
        <mxCell id="7SBuzqeGvcBYbPDj4jfo-19" value="" style="ellipse;whiteSpace=wrap;html=1;aspect=fixed;fillColor=#f8cecc;strokeColor=#b85450;" vertex="1" parent="1">
          <mxGeometry x="605" y="440" width="30" height="30" as="geometry" />
        </mxCell>
      </root>
    </mxGraphModel>
  </diagram>
</mxfile>
